<svg xmlns="http://www.w3.org/2000/svg" version="1.1" xmlns:xlink="http://www.w3.org/1999/xlink" viewBox="0 0 12.594082859739318 10.626586261820009"><g transform="matrix(0.8459551898749649,0,0,0.8459551898749649,1.788511782903437,7.966855974281806)"><g transform="matrix(1,0,0,1,0,0)" clip-path="url(#SvgjsClipPath91133)"><g clip-path="url(#SvgjsClipPath91131edc0e760-cf4d-449c-ac9d-ca69c7f10f8f)"><path d=" M 9.475711943597732 -4.143298448763945 C 9.528171816014236 -4.036286774996437 9.617040760658908 -3.9138804060245946 9.72467050433888 -3.746259845763922 C 9.911403688046565 -3.4554436887970263 10.012662557244202 -3.395148591644036 9.893869520068312 -3.2931385297835574 C 9.872522336168538 -3.2748151340709226 9.668511721215465 -3.1585799554558527 9.576333725347133 -3.1202881471866366 C 9.454811671788512 -3.069796589722139 9.42828220939191 -3.0724115008902624 9.425011193239785 -2.859443626590381 C 9.432713295225893 -2.7424857816161197 9.511056033822879 -2.615600782970872 9.518758135808993 -2.498623920460842 C 9.529721745179344 -2.3322204824893324 9.306379805117924 -2.314153823509569 9.301188017853212 -2.2352881026789575 C 9.293447880795567 -2.1167803285395896 9.607370343720792 -2.143823264401931 9.411765479577253 -1.9781995453969152 C 9.320690500783476 -1.9010739290890912 9.316325976324679 -1.705193310676914 9.315546257358182 -1.4949639615276489 C 9.313777626531742 -1.0231674254229404 8.941994311031854 -1.1776658860035738 8.502175761321325 -1.170087397999958 C 8.358897646843914 -1.1676151183500947 8.225356510679806 -1.1590001746471126 8.100905756612883 -1.1449747420180856 C 7.390220444956274 -1.0648253375231231 7.358812984635137 -0.3591416377735426 7.276619195045095 -0.2787830403851306 C 7.304517920017003 -0.3751734204261128 5.045643547777116 -0.25 5.045643547777116 -0.25 C 5.097513876584805 -1.0688760726417428 5.006438897791027 -1.596127743046445 4.859072013123456 -1.967121830811955 L 6.740153528560713 -1.967121830811955 C 6.891574329593057 -1.967602185168671 7.014198509627813 -2.0902476039764695 7.014652639838518 -2.2416684859291793 L 7.014652639838518 -2.2416684859291793 C 7.014208810481922 -2.3931152810225313 6.891552748708829 -2.515779839042059 6.7401059847212865 -2.5162341585821713 L 3.9555298712418105 -2.5162341585821713 C 3.804077233827977 -2.516678066620483 3.681412370190939 -2.6393471785384524 3.6809737073567015 -2.790799831235163 L 3.6809737073567015 -2.790799831235163 C 3.681433191902112 -2.9422407376979764 3.804088948956107 -3.0648922467864335 3.955529871241807 -3.0653464863523867 L 5.248845917460038 -3.0653464863523867 C 5.400293333990246 -3.0657799037174644 5.522962437136378 -3.188436262021712 5.523411590113031 -3.339883632701727 L 5.523411590113031 -3.339883632701727 C 5.522967708065808 -3.491337823538272 5.400300108296554 -3.6140054233075136 5.248845917460024 -3.6144493053547175 L 1.9689200498269652 -3.6144493053547175 C 1.8174779154640337 -3.614893213222761 1.6948215661420307 -3.7375538108250796 1.6943829034776239 -3.8889959604719415 L 1.6943829034776239 -3.8889959604719415 C 1.694816320842707 -4.040443377002161 1.8174726791469613 -4.163112480148289 1.968920049826975 -4.163561633124933 L 5.736198797823114 -4.163561633124933 C 5.887644039186606 -4.164005488829604 6.010305860874503 -4.286663062341918 6.010754961708223 -4.438108288242156 L 6.010754961708223 -4.438108288242156 C 6.010316351139561 -4.589564048191645 5.887654511386033 -4.712238632473781 5.736198797823104 -4.712692978430916 L 3.579467610194082 -4.712692978430916 C 3.428021762419628 -4.713131667047492 3.305359643693433 -4.835793785773687 3.304920955076857 -4.987239633548141 L 3.304920955076857 -4.987239633548141 C 3.3053648369520254 -5.138683321334826 3.4280239224074065 -5.261342406790202 3.579467610194085 -5.2617862886653635 L 6.74007745841764 -5.2617862886653635 C 6.891520524509365 -5.262240581696444 7.014175065558034 -5.384899370815666 7.0146241135348655 -5.536342452550471 L 7.0146241135348655 -5.536342452550471 C 7.014180284178269 -5.687789247643824 6.8915242224051765 -5.810453805663352 6.740077458417634 -5.810908125203463 L 2.0022577900285734 -5.810908125203463 C 1.8508119422541174 -5.811346813820038 1.7281498235279242 -5.934008932546233 1.727711134911348 -6.085454780320687 L 1.727711134911348 -6.085454780320687 C 1.7281497716157936 -6.236903735042876 1.8508088660525308 -6.359571325936116 2.0022577900285814 -6.360020452973679 L 5.202756919525875 -6.360020452973679 C 5.354203714619217 -6.360464282330271 5.476868272638749 -6.483120344103359 5.477322592178866 -6.634567108090902 L 5.477322592178866 -6.634567108090902 C 5.476868325655997 -6.786016979488625 5.354206790923591 -6.908678514221028 5.2027569195258705 -6.909132780743894 L 4.1102945773232 -6.909132780743894 C 3.958847160792992 -6.909566198108971 3.836178057646859 -7.032222556413219 3.8357289046702068 -7.183669927093233 L 3.8357289046702068 -7.183669927093233 C 3.8361727605487177 -7.335125671505517 3.9588388483731114 -7.457796007506108 4.1102945773232005 -7.4582451085141095 L 6.273672393703208 -7.4582451085141095 C 6.872249332006442 -7.5369016364512715 7.511828077425854 -7.428397086125963 8.116547679782206 -7.076372990289204 C 8.943401608678696 -6.595067686300408 9.270151399479554 -5.574748366034297 9.205016339473564 -4.871574981006114 C 9.180987683030478 -4.612061687913631 9.315527239822416 -4.469915116814425 9.475711943597732 -4.143298448763945 Z M 3.0427547157447155 -2.5162531761179388 C 3.194205799888927 -2.516697109969715 3.316867927492905 -2.639367734240307 3.3173013708619385 -2.7908188487709307 L 3.3173013708619385 -2.7908188487709307 C 3.3168522964114495 -2.9422603767494797 3.194196243723247 -3.064916429437676 3.0427547157447057 -3.065365503888154 L 2.3541392543470687 -3.065365503888154 C 2.2026924592537265 -3.064921674531563 2.0800279012341942 -2.942265612758473 2.079573581694076 -2.7908188487709307 L 2.079573581694076 -2.7908188487709307 C 2.080012270478699 -2.6393624979455783 2.202682903521711 -2.5166918649025636 2.354139254347067 -2.5162531761179388 Z M 2.956291489374718 -6.909132780743894 C 3.1077293195856703 -6.909581828631762 3.230383851550047 -7.032232112525901 3.2308381444919414 -7.183669927093233 L 3.2308381444919414 -7.183669927093233 C 3.230399534009977 -7.335120435518872 3.107741951412171 -7.457790762644344 2.9562914893746983 -7.4582451085141095 L 2.267676027977071 -7.4582451085141095 C 2.1162181390377834 -7.457801200390672 1.9935490182432212 -7.33512783131487 1.9931103553240788 -7.183669927093233 L 1.9931103553240788 -7.183669927093233 C 1.993564701106481 -7.032224716581219 2.1162307710753083 -6.90957139113914 2.267676027977068 -6.909132780743894 Z M 1.6772005599110804 -4.7126929784309155 C 1.828629393894781 -4.7131577342652555 1.9512654041876103 -4.835810736627126 1.9517091799567685 -4.987239633548141 L 1.9517091799567685 -4.987239633548141 C 1.951270491340194 -5.138685481322593 1.828608372613999 -5.261347600048788 1.6771625248395452 -5.2617862886653635 L 0.9885470634418985 -5.2617862886653635 C 0.837095948911278 -5.261352845296329 0.7144253246406816 -5.138690717692353 0.7139813907889074 -4.987239633548141 L 0.7139813907889074 -4.987239633548141 C 0.714430517826474 -4.835790709572088 0.8370981087197183 -4.713131615135357 0.9885470634418951 -4.7126929784309155 Z M 7.546839360775058 -6.360020452973679 C 7.698288315497239 -6.360459089678119 7.820955906390483 -6.48311818411485 7.821405033428049 -6.634567108090901 L 7.821405033428049 -6.634567108090901 C 7.820955958801477 -6.786019139118221 7.698291391802392 -6.908683706117312 7.546839360775065 -6.909132780743893 L 6.858233408145297 -6.909132780743893 C 6.70678137711797 -6.908683706117316 6.584116810118884 -6.7860191391182285 6.583667735492306 -6.634567108090901 L 6.583667735492306 -6.634567108090901 C 6.584116862529875 -6.4831181841148515 6.706784453423116 -6.36045908967812 6.858233408145297 -6.360020452973679 Z M 8.115111855831708 -4.1635806506607 C 8.266555543618388 -4.164024532535866 8.389214629073766 -4.286683617991244 8.38965851094893 -4.4381273057779245 L 8.38965851094893 -4.4381273057779245 C 8.389219874244487 -4.589576260500113 8.266560779807751 -4.712243851393353 8.1151118558317 -4.7126929784309155 L 7.426505903201947 -4.7126929784309155 C 7.2750538721746185 -4.712243903804337 7.152389305175531 -4.589579336805251 7.151940230548954 -4.438127305777924 L 7.151940230548954 -4.438127305777924 C 7.152384164400728 -4.286676221633714 7.275054788671321 -4.164014094029735 7.426505903201943 -4.1635806506607 Z M 7.129356906824249 -3.0653179600487332 C 7.280833911673637 -3.0657515804207955 7.403515186625093 -3.1884540988830636 7.403922579477243 -3.339931176541146 L 7.403922579477243 -3.339931176541146 C 7.40347869743002 -3.4913853673776916 7.280811097660766 -3.6140529671469332 7.129356906824234 -3.614496849194138 L 6.440741445426606 -3.614496849194138 C 6.289287254590076 -3.6140529671469253 6.166619654820828 -3.491385367377676 6.166175772773613 -3.339931176541146 L 6.166175772773613 -3.339931176541146 C 6.166635310678597 -3.188488126017469 6.289298347973712 -3.065837832934027 6.44074144542661 -3.0653940301918077 Z" fill="#343432" transform="matrix(1,0,0,1,0,0)" fill-rule="evenodd"></path></g></g><g><path d=" M 0.46125 1.18875 Q 0.40800000000000003 1.1684999999999999 0.34650000000000003 1.1204999999999998 L 0.321 1.188 L 0.084 1.188 L 0.084 0.831 L 0.3195 0.831 Q 0.342 0.8925 0.38925 0.9179999999999999 Q 0.4365 0.9435 0.5055000000000001 0.9435 Q 0.5475 0.9435 0.5775 0.92625 Q 0.6075 0.9089999999999999 0.6075 0.8805 Q 0.6075 0.8444999999999999 0.57675 0.8265 Q 0.546 0.8085 0.4905 0.7934999999999999 Q 0.34950000000000003 0.7545 0.25875 0.7094999999999999 Q 0.168 0.6645 0.1125 0.5804999999999999 Q 0.057 0.49649999999999994 0.057 0.35849999999999993 Q 0.057 0.2519999999999999 0.10275000000000001 0.17099999999999982 Q 0.1485 0.08999999999999986 0.234 0.04499999999999993 Q 0.3195 0 0.435 0 Q 0.5760000000000001 0 0.6585 0.08999999999999986 L 0.6960000000000001 0.020999999999999908 L 0.906 0.020999999999999908 L 0.906 0.37049999999999994 L 0.681 0.37049999999999994 Q 0.6495 0.3044999999999999 0.61125 0.2789999999999999 Q 0.5730000000000001 0.25349999999999995 0.507 0.25349999999999995 Q 0.456 0.25349999999999995 0.42825 0.27149999999999996 Q 0.4005 0.2895 0.4005 0.32099999999999995 Q 0.4005 0.3554999999999999 0.44025000000000003 0.37424999999999997 Q 0.48 0.3929999999999999 0.5535 0.4095 Q 0.684 0.4394999999999999 0.77475 0.4837499999999999 Q 0.8655 0.5279999999999999 0.92025 0.6097499999999999 Q 0.975 0.6915 0.975 0.8205 Q 0.975 0.9299999999999999 0.92925 1.0185 Q 0.8835000000000001 1.107 0.7987500000000001 1.158 Q 0.714 1.2089999999999999 0.6045 1.2089999999999999 Q 0.5145 1.2089999999999999 0.46125 1.18875 M 1.125017578125 0.9299999999999999 L 1.242017578125 0.9299999999999999 L 1.242017578125 0.28049999999999997 L 1.125017578125 0.28049999999999997 L 1.125017578125 0.022499999999999964 L 1.710017578125 0.022499999999999964 L 1.710017578125 0.28049999999999997 L 1.617017578125 0.28049999999999997 L 1.617017578125 0.5459999999999999 L 1.810517578125 0.28049999999999997 L 1.810517578125 0.022499999999999964 L 2.2665175781249998 0.022499999999999964 L 2.2665175781249998 0.28049999999999997 L 2.166017578125 0.28049999999999997 L 1.933517578125 0.5624999999999999 L 1.933517578125 0.573 Q 2.052017578125 0.573 2.119517578125 0.6134999999999999 Q 2.1870175781250003 0.6539999999999999 2.1870175781250003 0.7545 L 2.1870175781250003 0.873 Q 2.1870175781250003 0.8955 2.199767578125 0.91275 Q 2.212517578125 0.9299999999999999 2.2350175781250003 0.9299999999999999 L 2.319017578125 0.9299999999999999 L 2.319017578125 1.188 L 2.050517578125 1.188 Q 1.804517578125 1.188 1.804517578125 0.963 L 1.804517578125 0.8354999999999999 Q 1.804517578125 0.7979999999999999 1.780517578125 0.762 Q 1.756517578125 0.726 1.723517578125 0.726 L 1.617017578125 0.726 L 1.617017578125 0.9299999999999999 L 1.734017578125 0.9299999999999999 L 1.734017578125 1.188 L 1.125017578125 1.188 L 1.125017578125 0.9299999999999999 M 2.4539970703125 1.188 L 2.4539970703125 0.9299999999999999 L 2.5709970703125 0.9299999999999999 L 2.5709970703125 0.28049999999999997 L 2.4539970703125 0.28049999999999997 L 2.4539970703125 0.022499999999999964 L 3.0629970703125 0.022499999999999964 L 3.0629970703125 0.28049999999999997 L 2.9459970703125 0.28049999999999997 L 2.9459970703125 0.9299999999999999 L 3.0629970703125 0.9299999999999999 L 3.0629970703125 1.188 L 2.4539970703125 1.188 M 3.207018310546875 1.188 L 3.207018310546875 0.9255 L 3.324018310546875 0.9255 L 3.324018310546875 0.28049999999999997 L 3.207018310546875 0.28049999999999997 L 3.207018310546875 0.022499999999999964 L 3.816018310546875 0.022499999999999964 L 3.816018310546875 0.28049999999999997 L 3.699018310546875 0.28049999999999997 L 3.699018310546875 0.9255 L 3.886518310546875 0.9255 L 3.957018310546875 0.6689999999999999 L 4.143018310546875 0.6689999999999999 L 4.143018310546875 1.188 L 3.207018310546875 1.188 M 4.25850146484375 1.188 L 4.25850146484375 0.9255 L 4.37550146484375 0.9255 L 4.37550146484375 0.28049999999999997 L 4.25850146484375 0.28049999999999997 L 4.25850146484375 0.022499999999999964 L 4.86750146484375 0.022499999999999964 L 4.86750146484375 0.28049999999999997 L 4.75050146484375 0.28049999999999997 L 4.75050146484375 0.9255 L 4.93800146484375 0.9255 L 5.00850146484375 0.6689999999999999 L 5.19450146484375 0.6689999999999999 L 5.19450146484375 1.188 L 4.25850146484375 1.188 M 5.676734619140625 1.18875 Q 5.623484619140625 1.1684999999999999 5.561984619140625 1.1204999999999998 L 5.536484619140625 1.188 L 5.299484619140625 1.188 L 5.299484619140625 0.831 L 5.534984619140625 0.831 Q 5.557484619140625 0.8925 5.604734619140625 0.9179999999999999 Q 5.651984619140625 0.9435 5.720984619140625 0.9435 Q 5.762984619140625 0.9435 5.792984619140625 0.92625 Q 5.822984619140625 0.9089999999999999 5.822984619140625 0.8805 Q 5.822984619140625 0.8444999999999999 5.792234619140625 0.8265 Q 5.761484619140625 0.8085 5.705984619140625 0.7934999999999999 Q 5.564984619140625 0.7545 5.474234619140625 0.7094999999999999 Q 5.383484619140625 0.6645 5.327984619140625 0.5804999999999999 Q 5.272484619140625 0.49649999999999994 5.272484619140625 0.35849999999999993 Q 5.272484619140625 0.2519999999999999 5.318234619140625 0.17099999999999982 Q 5.363984619140625 0.08999999999999986 5.449484619140625 0.04499999999999993 Q 5.534984619140625 0 5.650484619140625 0 Q 5.7914846191406255 0 5.873984619140625 0.08999999999999986 L 5.911484619140625 0.020999999999999908 L 6.121484619140625 0.020999999999999908 L 6.121484619140625 0.37049999999999994 L 5.896484619140625 0.37049999999999994 Q 5.864984619140625 0.3044999999999999 5.826734619140625 0.2789999999999999 Q 5.788484619140625 0.25349999999999995 5.722484619140625 0.25349999999999995 Q 5.671484619140625 0.25349999999999995 5.643734619140625 0.27149999999999996 Q 5.615984619140625 0.2895 5.615984619140625 0.32099999999999995 Q 5.615984619140625 0.3554999999999999 5.655734619140625 0.37424999999999997 Q 5.695484619140625 0.3929999999999999 5.768984619140625 0.4095 Q 5.899484619140625 0.4394999999999999 5.990234619140625 0.4837499999999999 Q 6.080984619140625 0.5279999999999999 6.135734619140625 0.6097499999999999 Q 6.190484619140625 0.6915 6.190484619140625 0.8205 Q 6.190484619140625 0.9299999999999999 6.144734619140625 1.0185 Q 6.098984619140625 1.107 6.014234619140625 1.158 Q 5.929484619140625 1.2089999999999999 5.819984619140625 1.2089999999999999 Q 5.729984619140625 1.2089999999999999 5.676734619140625 1.18875 M 6.649502197265625 1.188 L 6.394502197265625 0.28049999999999997 L 6.274502197265625 0.28049999999999997 L 6.274502197265625 0.020999999999999908 L 6.927002197265625 0.020999999999999908 L 6.927002197265625 0.28049999999999997 L 6.816002197265625 0.28049999999999997 L 6.933002197265625 0.696 L 7.123502197265625 0.020999999999999908 L 7.423502197265625 0.020999999999999908 L 7.608002197265625 0.6735 L 7.722002197265625 0.28049999999999997 L 7.6200021972656256 0.28049999999999997 L 7.6200021972656256 0.020999999999999908 L 8.103002197265624 0.020999999999999908 L 8.103002197265624 0.28049999999999997 L 7.980002197265625 0.28049999999999997 L 7.729502197265625 1.188 L 7.332002197265625 1.188 L 7.191002197265625 0.6705 L 7.042502197265625 1.188 L 6.649502197265625 1.188 M 8.1630380859375 1.188 L 8.1630380859375 0.9299999999999999 L 8.2785380859375 0.9299999999999999 L 8.4795380859375 0.28049999999999997 L 8.3265380859375 0.28049999999999997 L 8.3265380859375 0.022499999999999964 L 9.052538085937499 0.022499999999999964 L 9.3120380859375 0.9299999999999999 L 9.427538085937499 0.9299999999999999 L 9.427538085937499 1.188 L 8.7720380859375 1.188 L 8.7720380859375 0.9299999999999999 L 8.8665380859375 0.9299999999999999 L 8.8350380859375 0.8054999999999999 L 8.5710380859375 0.8054999999999999 L 8.538038085937501 0.9299999999999999 L 8.677538085937499 0.9299999999999999 L 8.677538085937499 1.188 L 8.1630380859375 1.188 M 8.6085380859375 0.6285 L 8.8005380859375 0.6285 L 8.7150380859375 0.27149999999999996 L 8.6085380859375 0.6285 M 9.48755126953125 0.9255 L 9.60155126953125 0.9255 L 9.60155126953125 0.28049999999999997 L 9.49055126953125 0.28049999999999997 L 9.49055126953125 0.020999999999999908 L 10.11455126953125 0.020999999999999908 Q 10.32905126953125 0.020999999999999908 10.46780126953125 0.09375 Q 10.60655126953125 0.16649999999999987 10.60655126953125 0.35849999999999993 Q 10.60655126953125 0.582 10.485051269531251 0.6802499999999999 Q 10.36355126953125 0.7785 10.12055126953125 0.7785 Q 10.06055126953125 0.7785 10.01105126953125 0.7709999999999999 L 10.01105126953125 0.9255 L 10.11755126953125 0.9255 L 10.11755126953125 1.188 L 9.48755126953125 1.188 L 9.48755126953125 0.9255 M 10.04255126953125 0.5399999999999999 Q 10.20905126953125 0.5399999999999999 10.20905126953125 0.3929999999999999 Q 10.20905126953125 0.33899999999999997 10.17230126953125 0.30974999999999997 Q 10.13555126953125 0.28049999999999997 10.07405126953125 0.28049999999999997 L 10.01255126953125 0.28049999999999997 L 10.01255126953125 0.5399999999999999 L 10.04255126953125 0.5399999999999999" fill="#343432" fill-rule="nonzero"></path></g><g></g></g><defs><clipPath id="SvgjsClipPath91133"><path d=" M 0.714019425860446 -7.482530501690066 h 9.230988247888483 v 7.232530501690066 h -9.230988247888483 Z"></path></clipPath><clipPath id="SvgjsClipPath91131edc0e760-cf4d-449c-ac9d-ca69c7f10f8f"><path d=" M 0.714019425860446 -7.482530501690066 L 9.945007673748929 -7.482530501690066 L 9.945007673748929 -0.25 L 0.714019425860446 -0.25 Z"></path></clipPath></defs></svg>